<?xml version="1.0" encoding="UTF-8" standalone="no"?>
<!DOCTYPE svg PUBLIC "-//W3C//DTD SVG 1.1//EN"
 "http://www.w3.org/Graphics/SVG/1.1/DTD/svg11.dtd">
<!-- Generated by graphviz version 2.40.1 (20161225.0304)
 -->
<!-- Title: arch Pages: 1 -->
<svg width="344pt" height="235pt"
 viewBox="0.00 0.00 344.28 234.72" xmlns="http://www.w3.org/2000/svg" xmlns:xlink="http://www.w3.org/1999/xlink">
<g id="graph0" class="graph" transform="scale(1 1) rotate(0) translate(4 230.7203)">
<title>arch</title>
<polygon fill="#ffffff" stroke="transparent" points="-4,4 -4,-230.7203 340.2809,-230.7203 340.2809,4 -4,4"/>
<!-- user1 -->
<g id="node1" class="node">
<title>user1</title>
<ellipse fill="none" stroke="#000000" cx="27.9475" cy="-113.3602" rx="27.8951" ry="18"/>
<text text-anchor="middle" x="27.9475" y="-109.6602" font-family="Times,serif" font-size="14.00" fill="#000000">User</text>
</g>
<!-- peer1 -->
<g id="node2" class="node">
<title>peer1</title>
<path fill="none" stroke="#000000" d="M154.895,-128.0874C154.895,-129.8933 142.7932,-131.3602 127.895,-131.3602 112.9969,-131.3602 100.895,-129.8933 100.895,-128.0874 100.895,-128.0874 100.895,-98.6329 100.895,-98.6329 100.895,-96.8271 112.9969,-95.3602 127.895,-95.3602 142.7932,-95.3602 154.895,-96.8271 154.895,-98.6329 154.895,-98.6329 154.895,-128.0874 154.895,-128.0874"/>
<path fill="none" stroke="#000000" d="M154.895,-128.0874C154.895,-126.2816 142.7932,-124.8147 127.895,-124.8147 112.9969,-124.8147 100.895,-126.2816 100.895,-128.0874"/>
<text text-anchor="middle" x="127.895" y="-109.6602" font-family="Times,serif" font-size="14.00" fill="#000000">peer1</text>
</g>
<!-- user1&#45;&#45;peer1 -->
<g id="edge11" class="edge">
<title>user1&#45;&#45;peer1</title>
<path fill="none" stroke="#000000" d="M56.0545,-113.3602C70.0271,-113.3602 86.8407,-113.3602 100.6881,-113.3602"/>
<text text-anchor="middle" x="85.3713" y="-102.1602" font-family="Times,serif" font-size="14.00" fill="#000000">stdin</text>
</g>
<!-- peer2 -->
<g id="node3" class="node">
<title>peer2</title>
<path fill="none" stroke="#000000" d="M224.1783,-32.7273C224.1783,-34.5331 212.0764,-36 197.1783,-36 182.2801,-36 170.1783,-34.5331 170.1783,-32.7273 170.1783,-32.7273 170.1783,-3.2727 170.1783,-3.2727 170.1783,-1.4669 182.2801,0 197.1783,0 212.0764,0 224.1783,-1.4669 224.1783,-3.2727 224.1783,-3.2727 224.1783,-32.7273 224.1783,-32.7273"/>
<path fill="none" stroke="#000000" d="M224.1783,-32.7273C224.1783,-30.9214 212.0764,-29.4545 197.1783,-29.4545 182.2801,-29.4545 170.1783,-30.9214 170.1783,-32.7273"/>
<text text-anchor="middle" x="197.1783" y="-14.3" font-family="Times,serif" font-size="14.00" fill="#000000">peer2</text>
</g>
<!-- peer1&#45;&#45;peer2 -->
<g id="edge1" class="edge">
<title>peer1&#45;&#45;peer2</title>
<path fill="none" stroke="#000000" d="M141.2535,-94.9738C153.6007,-77.9794 171.8373,-52.8788 184.0957,-36.0066"/>
</g>
<!-- peer3 -->
<g id="node4" class="node">
<title>peer3</title>
<path fill="none" stroke="#000000" d="M336.2809,-187.0233C336.2809,-188.8291 324.179,-190.296 309.2809,-190.296 294.3827,-190.296 282.2809,-188.8291 282.2809,-187.0233 282.2809,-187.0233 282.2809,-157.5687 282.2809,-157.5687 282.2809,-155.7629 294.3827,-154.296 309.2809,-154.296 324.179,-154.296 336.2809,-155.7629 336.2809,-157.5687 336.2809,-157.5687 336.2809,-187.0233 336.2809,-187.0233"/>
<path fill="none" stroke="#000000" d="M336.2809,-187.0233C336.2809,-185.2174 324.179,-183.7505 309.2809,-183.7505 294.3827,-183.7505 282.2809,-185.2174 282.2809,-187.0233"/>
<text text-anchor="middle" x="309.2809" y="-168.596" font-family="Times,serif" font-size="14.00" fill="#000000">peer3</text>
</g>
<!-- peer1&#45;&#45;peer3 -->
<g id="edge2" class="edge">
<title>peer1&#45;&#45;peer3</title>
<path fill="none" stroke="#000000" d="M155.0503,-122.1835C189.3441,-133.3262 247.9955,-152.3832 282.2366,-163.5088"/>
</g>
<!-- peer4 -->
<g id="node5" class="node">
<title>peer4</title>
<path fill="none" stroke="#000000" d="M336.2809,-69.1516C336.2809,-70.9575 324.179,-72.4243 309.2809,-72.4243 294.3827,-72.4243 282.2809,-70.9575 282.2809,-69.1516 282.2809,-69.1516 282.2809,-39.6971 282.2809,-39.6971 282.2809,-37.8912 294.3827,-36.4243 309.2809,-36.4243 324.179,-36.4243 336.2809,-37.8912 336.2809,-39.6971 336.2809,-39.6971 336.2809,-69.1516 336.2809,-69.1516"/>
<path fill="none" stroke="#000000" d="M336.2809,-69.1516C336.2809,-67.3458 324.179,-65.8789 309.2809,-65.8789 294.3827,-65.8789 282.2809,-67.3458 282.2809,-69.1516"/>
<text text-anchor="middle" x="309.2809" y="-50.7243" font-family="Times,serif" font-size="14.00" fill="#000000">peer4</text>
</g>
<!-- peer1&#45;&#45;peer4 -->
<g id="edge3" class="edge">
<title>peer1&#45;&#45;peer4</title>
<path fill="none" stroke="#000000" d="M155.0503,-104.5369C189.3441,-93.3942 247.9955,-74.3372 282.2366,-63.2116"/>
</g>
<!-- peer5 -->
<g id="node6" class="node">
<title>peer5</title>
<path fill="none" stroke="#000000" d="M224.1783,-223.4476C224.1783,-225.2534 212.0764,-226.7203 197.1783,-226.7203 182.2801,-226.7203 170.1783,-225.2534 170.1783,-223.4476 170.1783,-223.4476 170.1783,-193.9931 170.1783,-193.9931 170.1783,-192.1872 182.2801,-190.7203 197.1783,-190.7203 212.0764,-190.7203 224.1783,-192.1872 224.1783,-193.9931 224.1783,-193.9931 224.1783,-223.4476 224.1783,-223.4476"/>
<path fill="none" stroke="#000000" d="M224.1783,-223.4476C224.1783,-221.6418 212.0764,-220.1749 197.1783,-220.1749 182.2801,-220.1749 170.1783,-221.6418 170.1783,-223.4476"/>
<text text-anchor="middle" x="197.1783" y="-205.0203" font-family="Times,serif" font-size="14.00" fill="#000000">peer5</text>
</g>
<!-- peer1&#45;&#45;peer5 -->
<g id="edge4" class="edge">
<title>peer1&#45;&#45;peer5</title>
<path fill="none" stroke="#000000" d="M141.2535,-131.7466C153.6007,-148.7409 171.8373,-173.8415 184.0957,-190.7138"/>
<text text-anchor="middle" x="124.6746" y="-165.0302" font-family="Times,serif" font-size="14.00" fill="#000000">UNIX socket</text>
</g>
<!-- peer2&#45;&#45;peer3 -->
<g id="edge5" class="edge">
<title>peer2&#45;&#45;peer3</title>
<path fill="none" stroke="#000000" d="M210.2572,-36.0017C231.7427,-65.5739 274.281,-124.1228 295.9377,-153.9307"/>
</g>
<!-- peer2&#45;&#45;peer4 -->
<g id="edge6" class="edge">
<title>peer2&#45;&#45;peer4</title>
<path fill="none" stroke="#000000" d="M224.3152,-26.8173C241.8109,-32.502 264.4823,-39.8684 282.0053,-45.562"/>
</g>
<!-- peer2&#45;&#45;peer5 -->
<g id="edge7" class="edge">
<title>peer2&#45;&#45;peer5</title>
<path fill="none" stroke="#000000" d="M197.1783,-36.2871C197.1783,-72.7415 197.1783,-154.0797 197.1783,-190.4886"/>
</g>
<!-- peer3&#45;&#45;peer4 -->
<g id="edge8" class="edge">
<title>peer3&#45;&#45;peer4</title>
<path fill="none" stroke="#000000" d="M309.2809,-154.1369C309.2809,-132.0512 309.2809,-94.9806 309.2809,-72.7983"/>
</g>
<!-- peer3&#45;&#45;peer5 -->
<g id="edge9" class="edge">
<title>peer3&#45;&#45;peer5</title>
<path fill="none" stroke="#000000" d="M282.1439,-181.1133C264.6482,-186.798 241.9768,-194.1644 224.4538,-199.858"/>
</g>
<!-- peer4&#45;&#45;peer5 -->
<g id="edge10" class="edge">
<title>peer4&#45;&#45;peer5</title>
<path fill="none" stroke="#000000" d="M296.2019,-72.426C274.7164,-101.9983 232.1781,-160.5472 210.5214,-190.355"/>
</g>
</g>
</svg>
